<svg xmlns="http://www.w3.org/2000/svg" viewBox="0 0 776.8 896.26"><defs><style>.cls-1,.cls-2,.cls-3,.cls-4,.cls-5,.cls-6{fill:none;}.cls-1{stroke:#6868fc;stroke-width:6.16px;}.cls-1,.cls-2,.cls-3,.cls-4{stroke-linejoin:round;}.cls-2{stroke:#77e3ef;}.cls-2,.cls-6{stroke-linecap:round;}.cls-2,.cls-3,.cls-4{stroke-width:9.24px;}.cls-3{stroke:#4acbdc;}.cls-4{stroke:#07abc5;}.cls-5,.cls-6{stroke:#7c7cff;stroke-miterlimit:10;stroke-width:21.55px;}</style></defs><g id="Layer_10" data-name="Layer 10"><line class="cls-1" x1="388.01" y1="11.78" x2="388.25" y2="215.78"/><line class="cls-1" x1="765.41" y1="665.97" x2="591.98" y2="563.89"/><line class="cls-1" x1="12.32" y1="665.97" x2="185.75" y2="563.89"/><polygon class="cls-2" points="387.97 447.97 185.21 330.85 387.97 213.78 590.46 331.33 387.97 447.97"/><polygon class="cls-3" points="387.97 680.9 185.47 564.68 185.21 330.85 387.97 447.97 387.97 680.9"/><polygon class="cls-4" points="387.97 680.9 590.46 565.2 590.46 331.33 387.97 447.97 387.97 680.9"/><polygon class="cls-5" points="765.41 665.97 765.41 230.29 388.09 12.44 10.78 230.29 10.78 665.97 388.09 883.82 765.41 665.97"/><polyline class="cls-6" points="11.39 230.67 388.09 448.51 766.02 230.67"/><line class="cls-6" x1="388.71" y1="448.51" x2="388.71" y2="883.82"/></g></svg>